<?xml version="1.0" encoding="UTF-8" standalone="no"?>
<!-- Generator: Adobe Illustrator 18.0.0, SVG Export Plug-In . SVG Version: 6.00 Build 0)  -->

<svg
   xmlns:dc="http://purl.org/dc/elements/1.1/"
   xmlns:cc="http://creativecommons.org/ns#"
   xmlns:rdf="http://www.w3.org/1999/02/22-rdf-syntax-ns#"
   xmlns:svg="http://www.w3.org/2000/svg"
   xmlns="http://www.w3.org/2000/svg"
   xmlns:sodipodi="http://sodipodi.sourceforge.net/DTD/sodipodi-0.dtd"
   xmlns:inkscape="http://www.inkscape.org/namespaces/inkscape"
   version="1.1"
   id="Layer_1"
   x="0px"
   y="0px"
   viewBox="172.3 -67.1 935 935"
   enable-background="new 172.3 -67.1 935 935"
   xml:space="preserve"
   inkscape:version="0.91 r13725"
   sodipodi:docname="logo.svg"
   inkscape:export-filename="/home/matt/Documents/ttnmapper/img/logo-48.png"
   inkscape:export-xdpi="4.6199999"
   inkscape:export-ydpi="4.6199999"><metadata
     id="metadata49"><rdf:RDF><cc:Work
         rdf:about=""><dc:format>image/svg+xml</dc:format><dc:type
           rdf:resource="http://purl.org/dc/dcmitype/StillImage" /><dc:title></dc:title></cc:Work></rdf:RDF></metadata><defs
     id="defs47" /><sodipodi:namedview
     pagecolor="#ffffff"
     bordercolor="#666666"
     borderopacity="1"
     objecttolerance="10"
     gridtolerance="10"
     guidetolerance="10"
     inkscape:pageopacity="0"
     inkscape:pageshadow="2"
     inkscape:window-width="1280"
     inkscape:window-height="743"
     id="namedview45"
     showgrid="false"
     inkscape:zoom="0.35695658"
     inkscape:cx="748.45238"
     inkscape:cy="655.47733"
     inkscape:window-x="0"
     inkscape:window-y="0"
     inkscape:window-maximized="1"
     inkscape:current-layer="g4822" /><g
     id="g4822"><rect
       ry="80"
       y="-67.099998"
       x="172.3"
       height="935"
       width="935"
       id="rect4725"
       style="fill:#0d83d0;fill-opacity:1;stroke:none;stroke-width:0.70866144;stroke-miterlimit:4;stroke-dasharray:none;stroke-opacity:1" /><path
       inkscape:connector-curvature="0"
       id="path4147"
       d="M 639.80379,100.43172 C 536.73831,98.642793 438.731,173.63146 411.96692,274.45498 392.68976,340.5196 405.39108,412.87776 440.33852,470.77452 489.1677,561.12017 561.72495,635.5322 639.74204,700.4 l 0.0616,0 0.0616,0 C 717.8824,635.5322 790.4089,561.12017 839.23794,470.77452 874.18548,412.87776 886.91748,340.5212 867.64044,274.45498 840.87646,173.63146 742.86946,98.631723 639.80382,100.43172 Z m -33.76857,130.23216 c 25.09398,0 47.28117,13.48452 58.87125,34.72448 6.75207,-3.85736 14.46741,-5.76694 23.15997,-5.76694 26.05102,0 47.2752,18.32366 52.0866,42.43416 17.3586,6.75156 29.91374,24.12074 29.91374,44.37702 0,27.03468 -21.25484,48.23188 -48.26288,48.23188 l -164.0004,0 c -27.00802,0 -48.26266,-21.22244 -48.26266,-48.23188 0,-20.25628 11.59891,-36.66704 28.95754,-44.37702 l 0,-3.85486 c 0,-37.64044 29.89572,-67.53684 67.53684,-67.53684 z"
       style="fill:#ffffff;fill-opacity:1;stroke:none;stroke-width:0.70866144;stroke-miterlimit:4;stroke-dasharray:none;stroke-opacity:1" /></g></svg>