<?xml version="1.0" encoding="UTF-8" standalone="no"?>
<!-- Generator: Adobe Illustrator 18.0.0, SVG Export Plug-In . SVG Version: 6.00 Build 0)  -->

<svg
   xmlns:dc="http://purl.org/dc/elements/1.1/"
   xmlns:cc="http://creativecommons.org/ns#"
   xmlns:rdf="http://www.w3.org/1999/02/22-rdf-syntax-ns#"
   xmlns:svg="http://www.w3.org/2000/svg"
   xmlns="http://www.w3.org/2000/svg"
   xmlns:sodipodi="http://sodipodi.sourceforge.net/DTD/sodipodi-0.dtd"
   xmlns:inkscape="http://www.inkscape.org/namespaces/inkscape"
   version="1.1"
   id="Layer_1"
   x="0px"
   y="0px"
   viewBox="172.3 -67.1 935 935"
   enable-background="new 172.3 -67.1 935 935"
   xml:space="preserve"
   inkscape:version="0.91 r13725"
   sodipodi:docname="logo.svg"><metadata
     id="metadata49"><rdf:RDF><cc:Work
         rdf:about=""><dc:format>image/svg+xml</dc:format><dc:type
           rdf:resource="http://purl.org/dc/dcmitype/StillImage" /><dc:title></dc:title></cc:Work></rdf:RDF></metadata><defs
     id="defs47" /><sodipodi:namedview
     pagecolor="#ffffff"
     bordercolor="#666666"
     borderopacity="1"
     objecttolerance="10"
     gridtolerance="10"
     guidetolerance="10"
     inkscape:pageopacity="0"
     inkscape:pageshadow="2"
     inkscape:window-width="1280"
     inkscape:window-height="743"
     id="namedview45"
     showgrid="false"
     inkscape:zoom="0.35695658"
     inkscape:cx="748.45238"
     inkscape:cy="655.47733"
     inkscape:window-x="0"
     inkscape:window-y="0"
     inkscape:window-maximized="1"
     inkscape:current-layer="Layer_1" /><rect
     style="fill:#0d83d0;fill-opacity:1;stroke:none;stroke-width:0.70866144;stroke-miterlimit:4;stroke-dasharray:none;stroke-opacity:1"
     id="rect4725"
     width="935"
     height="935"
     x="172.3"
     y="-67.099998"
     ry="80" /><path
     style="fill:#ffffff;fill-opacity:1;stroke:none;stroke-width:0.70866144;stroke-miterlimit:4;stroke-dasharray:none;stroke-opacity:1"
     d="M 639.80443,50.437012 C 519.56137,48.349921 405.21951,135.8367 373.99475,253.46415 351.50473,330.53954 366.32294,414.95739 407.09495,482.50361 464.06232,587.90687 548.71245,674.7209 639.73239,750.4 l 0.0719,0 0.0719,0 C 730.89614,674.7209 815.51039,587.90687 872.47761,482.50361 913.24973,414.95739 928.10373,330.5414 905.61386,253.46415 874.38921,135.8367 760.04771,48.337013 639.80446,50.437012 Z M 600.40776,202.37453 c 29.27632,0 55.16137,15.73194 68.68313,40.51189 7.87742,-4.50025 16.87865,-6.72809 27.01996,-6.72809 30.39286,0 55.1544,21.3776 60.7677,49.50652 20.2517,7.87682 34.89937,28.14086 34.89937,51.77319 0,31.54046 -24.79732,56.27052 -56.30669,56.27052 l -191.33381,0 c -31.50935,0 -56.30643,-24.75951 -56.30643,-56.27052 0,-23.63233 13.53206,-42.77822 33.78379,-51.77319 l 0,-4.49734 c 0,-43.91385 34.87834,-78.79298 78.79298,-78.79298 z"
     id="path4147"
     inkscape:connector-curvature="0" /></svg>